<?xml version="1.0" encoding="utf-8"?>
<!-- Generator: Adobe Illustrator 22.0.1, SVG Export Plug-In . SVG Version: 6.00 Build 0)  -->
<svg version="1.1" id="Logo" xmlns="http://www.w3.org/2000/svg" xmlns:xlink="http://www.w3.org/1999/xlink" x="0px" y="0px"
	 viewBox="0 0 800 184.6" style="enable-background:new 0 0 800 184.6;" xml:space="preserve">
<style type="text/css">
	.st0{fill:#FFFFFF;}
</style>
<g>
	<path class="st0" d="M137.4,153.2c-17.1,16.8-37.2,25-60.7,25H6.3V6.1h70.4c23.5,0,43.6,8.4,60.7,25.3
		c16.8,16.8,25.3,37.2,25.3,60.7C162.6,115.8,154.2,136.2,137.4,153.2z M115.1,92.6c0-10.4-3.7-19.8-11.3-28
		c-7-8.2-17.1-12.5-28.9-12.5h-21v80.5h6.7c15.2,0,30.2,0.6,42.7-11.9C111.8,112.4,115.1,102.4,115.1,92.6z"/>
	<path class="st0" d="M225.7,52.1v17.4h80.5v45.7h-80.5v17.4h80.5v45.7H180V6.3h126.2v45.7H225.7z"/>
	<path class="st0" d="M393.4,178.3L329,6.6h57l37.7,108.6L461.5,6.6h57l-64.7,171.7H393.4z"/>
	<path class="st0" d="M518.4,178.5c-12.8,0-23.1-10-23.1-22.8c0-12.6,10.3-23.1,23.1-23.1c12.6,0,23.1,10.5,23.1,23.1
		C541.5,168.5,531,178.5,518.4,178.5z"/>
	<rect x="621.8" y="132.6" class="st0" width="45.7" height="45.7"/>
	<rect x="684.9" y="132.6" class="st0" width="45.7" height="45.7"/>
	<rect x="748" y="132.6" class="st0" width="45.7" height="45.7"/>
	<rect x="748" y="69.5" class="st0" width="45.7" height="45.7"/>
	<rect x="684.9" y="6.3" class="st0" width="45.7" height="45.7"/>
	<polygon class="st0" points="667.5,52.1 667.5,6.3 604.4,6.3 563.6,6.3 558.7,6.3 558.7,178.3 604.4,178.3 604.4,115.2 
		667.5,115.2 667.5,69.5 604.4,69.5 604.4,52.1 	"/>
</g>
</svg>
